<svg t="1546686097291" viewBox="0 0 1024 1024" version="1.1" xmlns="http://www.w3.org/2000/svg" p-id="7749" xmlns:xlink="http://www.w3.org/1999/xlink" width="16" height="16">
<path d="M512 142.849636c49.823744 0 98.131965 9.747516 143.585504 28.972526 43.924636 18.579149 83.382979 45.184734 117.277915 79.080887 33.894936 33.894936 60.501738 73.353279 79.080887 117.277915 19.22501 45.452323 28.972526 93.76176 28.972526 143.585504s-9.747516 98.131965-28.972526 143.585504c-18.579149 43.924636-45.184734 83.382979-79.080887 117.277916-33.894936 33.894936-73.353279 60.501738-117.277915 79.080887-45.452323 19.22501-93.76176 28.972526-143.585504 28.972526s-98.131965-9.747516-143.585504-28.972526c-43.924636-18.579149-83.382979-45.184734-117.277915-79.080887-33.894936-33.894936-60.501738-73.353279-79.080887-117.277916-19.22501-45.452323-28.972526-93.76176-28.972526-143.585504s9.747516-98.131965 28.972526-143.585504c18.579149-43.924636 45.184734-83.382979 79.080887-117.277915s73.353279-60.501738 117.277915-79.080887c45.453539-19.223794 93.762976-28.972526 143.585504-28.972526m0-44.821057c-228.501035 0-413.736673 185.236855-413.736673 413.736673S283.500182 925.503142 512 925.503142s413.736673-185.236855 413.736673-413.736674S740.501035 98.028579 512 98.028579z" p-id="7750">
</path>
<path d="M488.542228 115.289247h44.821057v780.948238h-44.821057z" p-id="7751">
</path>
<path d="M661.647598 143.001675l31.693413 31.69463-166.01671 166.015493-31.692197-31.693413zM767.461782 217.801147l31.693414 31.693414L527.326734 521.323023l-31.693414-31.693413zM850.471354 319.054166l31.693413 31.693414-353.25318 353.25318-31.693414-31.693413zM891.520631 458.61733l31.692197 31.693414-401.358277 401.358277-31.693414-31.693414z" p-id="7752">
</path>
</svg>
