<svg t="1546686139614" viewBox="0 0 1024 1024" version="1.1" xmlns="http://www.w3.org/2000/svg" p-id="9187" xmlns:xlink="http://www.w3.org/1999/xlink" width="16" height="16">
<path d="M503.168 26.88c0 0-352.64 504.704-352.64 677.888 0 153.472 132.224 280.96 290.432 308.096l12.608-61.12c-125.312-20.8-244.544-116.608-244.544-231.936 0-130.56 294.144-587.584 294.144-587.584s294.144 457.024 294.144 587.584c0 110.336-109.248 202.24-228.352 228.352l-10.24 65.664c161.152-24.704 297.088-153.472 297.088-309.056 0.064-173.12-352.64-677.888-352.64-677.888zM541.12 702.784c-77.056 30.016-83.2-15.040-83.2-15.040l79.168-245.696c-12.992-64.768-60.096-30.080-60.096-30.080s-82.496 242.112-109.184 320.832c-26.688 78.72 45.056 75.2 45.056 75.2l143.296-45.12-83.2 255.616h30.016l15.040-30.080c0 0 113.856-190.784 143.232-285.632 23.040-74.368-75.008-17.6-120.128 0z" p-id="9188">
</path>
</svg>
