<!-- 监控预警 -->
<svg width="16" height="16" t="1546676586330" viewBox="0 0 1024 1024" version="1.1" xmlns="http://www.w3.org/2000/svg" p-id="2088" xmlns:xlink="http://www.w3.org/1999/xlink">
    <path d="M938.672 768h-384v85.328h426.672a42.672 42.672 0 0 1 0 85.344H42.672a42.672 42.672 0 0 1 0-85.344h426.656V768h-384A85.344 85.344 0 0 1 0 682.672v-512a85.344 85.344 0 0 1 85.344-85.344h853.328A85.344 85.344 0 0 1 1024 170.672v512A85.328 85.328 0 0 1 938.672 768z m0-597.328H85.344v512h853.328zM426.416 383.744l-127.744 126.224V512h-128v-85.328h89.92L426.672 256l170.672 170.672h84.464L810.672 256l42.672 85.328-128 168V512H554.672z" ></path>
</svg>
