<svg t="1546686159714" viewBox="0 0 1024 1024" version="1.1" xmlns="http://www.w3.org/2000/svg" p-id="10130" xmlns:xlink="http://www.w3.org/1999/xlink" width="16" height="16">
    <path d="M962.942511 510.837526c0-241.600064-190.961858-439.366895-429.871655-450.400159V28.017044c0-11.596083-9.439981-21.05039-21.064716-21.050389-11.623712 0-21.049366 9.454307-21.049367 21.050389v32.421346C252.046976 71.470632 61.056466 269.237463 61.056466 510.837526c0 241.573458 190.99051 439.339265 429.899284 450.40016v34.74527c0 11.653388 9.425655 21.05039 21.049367 21.050389 11.624735 0 21.064716-9.398025 21.064716-21.050389v-34.74527c238.910821-11.059871 429.872679-208.826702 429.872678-450.40016z m-88.894432 138.702739c-18.330447-8.594732-49.482896-15.935916-101.109613-22.319287 6.255458-37.127521 9.665108-76.10006 9.665108-116.383452 0-39.733877-3.339041-78.762697-9.5945-116.396754 51.597042-6.396674 82.721861-13.737858 101.037982-22.319287 16.570364 43.101571 25.72996 89.823592 25.72996 138.716041 0.001023 48.850494-9.158572 95.586841-25.728937 138.702739zM575.650542 893.267778c-13.962985 2.352576-28.151097 3.97349-42.579686 4.748131V656.034153c74.437191 0.535188 138.50524 3.748363 189.763569 8.271367-26.488228 110.169948-80.622041 195.273038-147.183883 228.962258zM301.178878 664.30552c51.259352-4.523004 115.313075-7.736179 189.777895-8.271367v241.981756c-14.428589-0.774641-28.631027-2.395555-42.594012-4.748131-66.560819-33.689219-120.694632-118.792309-147.183883-228.962258z m-17.669392-153.467994c0-38.310461 3.255131-75.916889 9.384722-111.987336 57.598721 5.268993 125.851061 8.313323 198.062565 8.819858V613.962026c-72.282112 0.534165-140.547756 3.592821-198.190478 8.890466-5.987353-35.576192-9.256809-73.154991-9.256809-112.014966z m249.56137 103.125523V407.671072c72.211504-0.507559 140.449518-3.550865 198.033913-8.819859 6.143918 36.070448 9.399049 73.676876 9.399048 111.987337 0 38.859975-3.268433 76.438774-9.271135 112.014966-57.61407-5.297646-125.89404-8.356302-198.161826-8.890467zM348.069745 159.504465c-4.537331 5.636359-9.031682 11.399608-13.35719 17.486221-6.749714 9.496263-4.523004 22.641628 4.959956 29.377016 9.496263 6.735388 22.642651 4.523004 29.363712-4.974282 24.008762-33.815086 51.54076-58.571883 80.649671-73.267554a392.989727 392.989727 0 0 1 41.269856-4.508678v78.087317c0 11.596083 9.425655 21.05039 21.049367 21.05039 11.624735 0 21.064716-9.454307 21.064716-21.05039v-78.087317a393.347883 393.347883 0 0 1 41.269856 4.508678c29.10891 14.695671 56.656258 39.465771 80.663996 73.296207 4.114706 5.763249 10.610641 8.834185 17.204813 8.834185 4.198617 0 8.453516-1.254571 12.1589-3.888556 9.48296-6.706735 11.708646-19.880753 4.973258-29.321757-4.33881-6.115266-8.833161-11.906144-13.369468-17.513851 77.875493 36.493073 141.660087 98.136915 180.929384 174.40582-11.202111 6.171547-43.030963 13.215973-92.008347 19.07746-6.833625-29.320734-15.568549-57.487181-26.192493-84.004062-4.339833-10.778463-16.557061-16.019827-27.377479-11.708646-10.808138 4.353136-16.048479 16.583667-11.708646 27.376456 9.200528 22.952712 16.795491 47.370796 22.938386 72.676084-51.20307 4.537331-115.170836 7.735156-189.48216 8.271368v-68.491794c0-11.652364-9.439981-21.092345-21.064716-21.092345-11.623712 0-21.049366 9.439981-21.049367 21.092345V365.626574c-74.324627-0.535188-138.293416-3.734037-189.509789-8.271368 6.157221-25.305288 13.751161-49.723372 22.966015-72.676084 4.32653-10.792789-0.916881-23.02332-11.708646-27.376456-10.820418-4.31118-23.036623 0.930183-27.376456 11.708646-10.623944 26.517904-19.38752 54.683327-26.221146 84.004062-48.977383-5.861486-80.79191-12.905912-92.022672-19.07746 39.297949-76.297558 103.083567-137.954703 180.986689-174.433449zM149.965224 372.121485c18.316121 8.580405 49.44094 15.921589 101.024679 22.319287a712.279042 712.279042 0 0 0-9.580174 116.396754c0 40.283391 3.3943 79.25593 9.651805 116.383452-51.625695 6.382348-82.76484 13.723532-101.080961 22.290634-16.583667-43.087245-25.770892-89.823592-25.770892-138.674086-0.001023-48.892449 9.186201-95.61447 25.755543-138.716041z m17.118855 315.587001c11.258392-6.2002 43.200831-13.243602 92.360363-19.077459 18.373426 77.677995 49.864588 144.830283 90.090674 194.187313-78.551897-36.435768-142.900332-98.333389-182.451037-175.109854z m507.379782 175.109854c40.241436-49.31405 71.732598-116.508294 90.119326-194.187313 49.131902 5.832834 81.074341 12.877259 92.318408 19.077459-39.522053 76.776464-103.871511 138.701715-182.437734 175.109854z" p-id="10131"></path>
</svg>
