<svg t="1546686364785" viewBox="0 0 1024 1024" version="1.1" xmlns="http://www.w3.org/2000/svg" p-id="19611" xmlns:xlink="http://www.w3.org/1999/xlink" width="16" height="16">
<path d="M922.15 358.68c-34 0-89.41-4.1-159.27-23.78C662.91 306.74 608 256 608 256s-54.91 50.74-154.88 78.9c-69.85 19.67-125.22 23.78-159.27 23.78-24.4 0-37.85-2.11-37.85-2.11s0.94 91.42 28.16 252.85c29.07 172.41 119.68 271.71 190.08 309.72C549.33 959.68 606.21 960 608 960c1.75 0 58.62-0.31 133.72-40.86 70.4-38 161-137.31 190.08-309.72C959.06 448 960 356.57 960 356.57s-13.46 2.11-37.85 2.11z m-417.5 504.15c-18-9.7-53.32-33.56-88.17-84.36a397.63 397.63 0 0 1-40.84-77.07 494.9 494.9 0 0 1-26.73-93.4H608V335.37q3 2 6.31 4a514.82 514.82 0 0 0 131.22 57.13c59 16.62 109.05 23.15 146.39 25.29-3.62 41.4-10.43 101.31-23.19 177q-0.78 4.63-1.64 9.22H608V896c-4.9-0.24-47.56-3.05-103.35-33.17zM192 128V64H64v896h128v-64h-64V672h64v-64h-64V384h64v-64h-64V128h64z" p-id="19612">
</path>
</svg>
